# xmcd
# 
# Track frame offsets:
#     150
#     15878
#     32200
#     51341
#     65817
#     82881
#     98198
#     115176
#     130901
#     146239
#     162788
#     172995
#     189497
# 
# Disc length: 2753
# 
# Revision: 1
# Processed by: cddbd v1.5.2PL0 Copyright (c) Steve Scherf et al.
# Submitted via: BonkEnc v1.0.8
# 
DISCID=ab0abf0d
DTITLE=Aselin Debison - Bigger Than Me
DYEAR=2004
DGENRE=Pop
TTITLE0=Life
TTITLE1=Faze
TTITLE2=Miss you
TTITLE3=The friend in me
TTITLE4=Thank you (4 breaking my heart)
TTITLE5=Had to grow up
TTITLE6=Bigger than me
TTITLE7=Stupid things
TTITLE8=Lazy days
TTITLE9=Cat in the sun
TTITLE10=Most of all
TTITLE11=Underneath the moonlight
TTITLE12=Secret
EXTD=
EXTT0=
EXTT1=
EXTT2=
EXTT3=
EXTT4=
EXTT5=
EXTT6=
EXTT7=
EXTT8=
EXTT9=
EXTT10=
EXTT11=
EXTT12=
PLAYORDER=
